<svg width="128" height="128" viewBox="0 0 128 128" fill="none" xmlns="http://www.w3.org/2000/svg">
<path d="M48.65 76.5201C48.65 76.5201 57.64 69.7001 71.08 69.9501C90.98 70.3301 95.2 79.8001 95.2 79.8001L98.39 94.8201C98.39 94.8201 104.4 96.6001 106.27 96.7901C108.15 96.9801 111.81 97.9601 116.22 94.8701C120.63 91.7701 119.5 88.3501 121.66 88.4401C124.48 88.5601 122.5 98.0101 120.06 101.02C117.62 104.02 106.73 109.75 102.13 110.97C97.53 112.19 96.12 114.11 91.34 114.21C86.55 114.3 74.54 111.07 74.54 111.07L48.64 98.8701V76.5201H48.65Z" fill="#96A820"/>
<path d="M58.13 96.23C58.13 96.23 62.07 89.19 69.11 89.75C76.15 90.31 78.68 95.29 78.68 95.29L63.1 100.36L58.13 96.23V96.23ZM94.26 105.34C99.23 106.94 101.11 106.75 101.11 106.75C101.11 106.75 104.02 103.65 105.24 101.02C106.46 98.39 106.6 96.89 106.6 96.89C106.6 96.89 104.68 96.42 102.89 95.86C101.11 95.3 97.54 93.23 97.54 93.23L93.41 104.59L94.26 105.34Z" fill="#70853B"/>
<path d="M50.62 5.70993C65.26 6.40993 77.9 19.4599 73.57 36.5399C70.33 49.2999 59.06 66.1799 56.25 70.5099C51.09 78.4899 45.55 93.9699 61.08 95.6199C83.29 97.9699 66.89 85.7899 77.75 78.2799C83.45 74.3399 89.94 75.5799 94.12 78.5799C99.57 82.4999 114.74 124.64 59.21 121.71C47.67 121.1 38.5 114.74 33.45 109.88C18.5 95.5199 29.97 71.5799 30.92 69.4799C32.18 66.6699 44 51.3199 43.16 46.3999C42.32 41.4699 38.23 42.7399 32.6 40.7699C26.97 38.7999 20.72 32.5699 22.46 24.0199C24.08 16.0599 30.22 4.72993 50.62 5.70993V5.70993Z" fill="#BED04A"/>
<path d="M92.15 114.46C92.15 114.46 94.87 112 95.81 111.25C96.75 110.5 101.11 106.75 101.11 106.75C101.11 106.75 108.04 106.5 112.84 104.5C118.8 102.01 122.27 95.77 122.74 93.57C122.99 92.38 122.13 104.27 113.59 110.04C105.34 115.61 92.15 114.46 92.15 114.46ZM22.53 86.87C22.2 99.4 32.44 112.6 41.32 116.15C46.25 118.12 25.55 108.48 27.24 87.92C28.58 71.57 45.05 57.65 45.4 48.36C45.61 42.73 38.64 42.24 38.64 42.24C38.64 42.24 40.8 43.86 40.89 45.97C41.03 49.35 32.3 61.74 30.47 64.27C28.66 66.81 22.82 76.17 22.53 86.87V86.87Z" fill="#E4DDA2"/>
<path d="M25 30.0701L29.32 34.7601C29.53 34.4701 24.6 39.4701 20.03 42.8301C16.97 45.0801 7.55 49.9001 7.05 49.4201C6.42 48.8101 9.33 46.8901 10.92 45.4801C12.13 44.4101 15.14 41.7001 15.14 41.7001C15.14 41.7001 11.43 42.1001 9.65 42.1001C7.87 42.1001 3.32 42.2401 3.74 41.4001C4.07 40.7401 10.62 39.7001 13.08 38.7001C20.49 35.7001 25 30.0701 25 30.0701V30.0701Z" fill="#EE6D33"/>
<path d="M42.88 15.21C40.31 17 37.81 16.55 37 15.05C36.4 13.93 36.23 11.81 38.6 10.02C40.69 8.43995 43.37 8.91995 44.35 10.28C45.17 11.43 44.83 13.86 42.88 15.21V15.21ZM54.91 26.87C51.84 28.67 49.35 27.74 48.29 26.11C47.43 24.78 47.63 21.58 50.12 20.14C52.7 18.64 55.56 19.18 56.66 20.97C57.58 22.47 57.25 25.5 54.91 26.87V26.87Z" fill="#323234"/>
<path d="M66.67 43.49C64.84 47.74 68.5 49.71 68.5 49.71C68.5 49.71 69.93 46.66 70.54 45.28C71.29 43.57 72.02 41.44 72.02 41.44C72.02 41.44 68.13 40.09 66.67 43.49V43.49ZM64.84 56.46C64.84 56.46 62.31 56.18 60.05 55.4C58 54.69 54.55 51.8 52.45 55.54C50.51 58.99 53.76 60.89 56.32 61.95C58.71 62.94 60.86 63.29 60.86 63.29C60.86 63.29 62.5 60.54 62.97 59.77C63.44 59 64.84 56.46 64.84 56.46ZM56.25 70.52C56.25 70.52 52.87 70.33 50.69 69.77C48.78 69.28 45.29 66.95 43.37 69.98C41.66 72.68 44.14 74.82 47.45 75.68C51.11 76.63 53.22 76.35 53.22 76.35C53.22 76.35 54.1 74.56 54.45 73.57C54.82 72.56 56.25 70.52 56.25 70.52V70.52ZM51.02 83.37C51.02 83.37 46.94 83.93 44.97 83.93C42.93 83.93 37.77 83.45 37.88 88.2C37.97 92.28 43.5 91.94 44.92 91.91C46.94 91.86 52.21 90.91 52.21 90.91C52.21 90.91 51.31 89.31 51.05 87.07C50.85 85.43 51.02 83.37 51.02 83.37V83.37ZM55.12 93.84C55.12 93.84 54.46 96.81 53.5 98.98C52.44 101.37 49.98 105.46 54.98 107.36C59.6 109.12 61.46 105.81 62.3 102.08C63.08 98.61 63.14 95.78 63.14 95.78C63.14 95.78 60.7 95.67 58.68 95.21C57.06 94.82 55.12 93.84 55.12 93.84ZM70.82 95.27C70.82 95.27 74.13 98.16 75.18 99.63C76.24 101.11 78.65 105.57 82.5 103.64C85.88 101.95 83.15 96.79 81.51 94.91C80.14 93.34 78.06 91.63 76.09 90.5C74.77 89.75 73.65 89.56 73.65 89.56C73.65 89.56 73.88 91.62 73.27 93.08C72.63 94.65 70.82 95.27 70.82 95.27V95.27ZM75.19 85.53C75.53 86.69 76.54 86.74 78.78 85.81C81.17 84.82 84.41 84.33 87.09 84.33C90.26 84.33 93.35 86.44 94.48 87.36C95.61 88.28 96.97 88.6 97.18 86.84C97.39 85.08 96.12 83.11 93.66 81.35C92.16 80.28 89.48 78.63 86.32 78.56C82.95 78.49 79.84 79.69 77.87 80.95C76.65 81.74 74.62 83.63 75.19 85.53Z" fill="#E4DDA2"/>
</svg>
